<?xml version="1.0" encoding="utf-8"?>
<!-- Generator: Adobe Illustrator 19.1.0, SVG Export Plug-In . SVG Version: 6.00 Build 0)  -->
<svg version="1.1" id="Capa_1" xmlns="http://www.w3.org/2000/svg" xmlns:xlink="http://www.w3.org/1999/xlink" x="0px" y="0px"
	 viewBox="0 0 1917.2 353.6" style="enable-background:new 0 0 1917.2 353.6;" xml:space="preserve">
<style type="text/css">
	.st0{fill:none;stroke:#FFFFFF;stroke-width:20;stroke-linecap:round;stroke-linejoin:round;stroke-miterlimit:10;}
	.st1{fill:#FFFFFF;}
	.st2{opacity:0.5;fill:#DEDDDD;}
	.st3{fill:#FFFFFF;stroke:#FFFFFF;stroke-width:20;stroke-linecap:round;stroke-linejoin:round;stroke-miterlimit:10;}
</style>
<polygon class="st0" points="1839.3,124 1802.9,55 1764.5,122.9 1695.5,159.3 1763.4,197.7 1799.8,266.7 1838.2,198.8 1907.2,162.4 
	"/>
<g>
	<path class="st1" d="M136,137.8V65.1c0-7,4.5-11.8,10.9-11.8c6.7,0,11.2,4.8,11.2,11.8v189.8c0,7-4.5,11.8-11.2,11.8
		c-6.4,0-10.9-4.8-10.9-11.8v-95H51.2v95c0,7-4.5,11.8-11.2,11.8c-6.4,0-10.9-4.8-10.9-11.8V65.1c0-7,4.5-11.8,10.9-11.8
		c6.7,0,11.2,4.8,11.2,11.8v72.6H136z"/>
	<path class="st1" d="M205.8,123.7c0-21.4,5.1-36.2,16.3-49c12.2-13.4,30.4-21.4,49-21.4c36.8,0,64.3,28.5,64.3,66.2v81
		c0,37.4-27.8,66.2-64.6,66.2c-18.2,0-35.5-7.4-47.7-20.8c-12.2-13.1-17.3-27.8-17.3-50.6V123.7z M313.3,122.7
		c0-15-3.2-25.3-10.2-33c-7.7-9-20.2-14.1-32.6-14.1c-13.1,0-25.3,5.4-32.6,14.4c-6.7,8.3-9.9,18.9-9.9,33.9v71.4
		c0,17.9,3.5,28.5,11.8,36.8c8,7.7,19.2,12.2,31,12.2c13.1,0,25.3-5.4,33.3-15c6.4-8,9.3-17.6,9.3-32V122.7z"/>
	<path class="st1" d="M489,79.5c0,5.4-4.2,10.2-9,10.2c-2.9,0-4.8-0.6-11.8-4.5c-12.8-7-22.7-9.9-34.6-9.9
		c-24.3,0-42.2,12.5-42.2,29.4c0,15,12.5,26.6,63.7,58.6c30.1,18.9,38.7,30.1,38.7,51.2c0,30.7-27.2,52.2-66.2,52.2
		c-28.8,0-62.4-15.7-62.4-29.1c0-5.4,4.2-9.9,9-9.9c4.2,0,4.2,0,23.7,9.3c10.6,4.8,21.4,7.4,32,7.4c24.3,0,41.9-11.8,41.9-28.5
		c0-8.3-4.2-15.7-13.1-22.7c-7-5.4-7-5.4-39.4-27.2c-22.7-15.4-29.8-20.8-37.4-29.1c-8.6-9.3-12.5-19.5-12.5-31.7
		c0-29.4,26.9-51.8,62.4-51.8C459.8,53.3,489,66.4,489,79.5z"/>
	<path class="st1" d="M641.3,137.8V65.1c0-7,4.5-11.8,10.9-11.8c6.7,0,11.2,4.8,11.2,11.8v189.8c0,7-4.5,11.8-11.2,11.8
		c-6.4,0-10.9-4.8-10.9-11.8v-95h-84.8v95c0,7-4.5,11.8-11.2,11.8c-6.4,0-10.9-4.8-10.9-11.8V65.1c0-7,4.5-11.8,10.9-11.8
		c6.7,0,11.2,4.8,11.2,11.8v72.6H641.3z"/>
	<path class="st1" d="M714.6,65.1c0-7,4.5-11.8,10.9-11.8c6.7,0,11.2,4.8,11.2,11.8v189.8c0,7-4.5,11.8-11.2,11.8
		c-6.4,0-10.9-4.8-10.9-11.8V65.1z"/>
	<path class="st1" d="M902.7,65.1c0-7,4.5-11.8,10.9-11.8c6.7,0,11.2,4.8,11.2,11.8v181.1c0,13.1-3.8,20.5-10.9,20.5
		c-4.8,0-8-2.9-13.4-12.5l-83.2-149.8v150.4c0,7-4.5,11.8-11.2,11.8c-6.4,0-10.9-4.8-10.9-11.8V73.4c0-13.8,3.5-20.2,10.6-20.2
		c4.5,0,9,3.2,11.8,8.3l85.1,150.7V65.1z"/>
	<path class="st2" d="M1006.1,254.9c0,7-4.5,11.8-11.2,11.8c-6.4,0-10.9-4.8-10.9-11.8V66.7c-0.6-9,4.5-14.1,13.4-13.4h47
		c20.5,0,34.9,4.5,47.4,15.4c14.7,12.2,23,30.7,23,50.6c0,37.8-27.2,63.7-66.2,63.7h-42.6V254.9z M1045.4,160.8
		c13.1,0,21.8-2.2,29.8-7.4c10.9-7.7,17.6-20.8,17.6-35.5c0-15.4-7.7-29.4-19.8-36.5c-7.4-4.2-16.6-6.1-28.8-6.1h-38.1v85.4H1045.4z
		"/>
	<path class="st2" d="M1248.3,244.6c6.7,0,11.8,4.5,11.8,11.2c0,6.4-5.1,10.9-11.8,10.9H1167c-9,0.6-14.1-4.5-13.4-13.4V65.1
		c0-7,4.5-11.8,10.9-11.8c6.7,0,11.2,4.8,11.2,11.8v179.5H1248.3z"/>
	<path class="st2" d="M1318.7,215.5l-14.4,43.2c-1.6,5.1-5.4,8.3-10.6,8.3c-6.1,0-11.2-5.1-11.2-11.2c0-1,0.3-2.6,1-4.2l62.1-185
		c3.2-9.6,6.7-13.4,12.5-13.4c7,0,9,2.2,12.8,14.1l60.2,184.3c0.6,1.6,1,3.5,1,4.5c0,5.8-5.1,10.9-11.2,10.9c-5.1,0-9-2.9-10.9-8.3
		l-14.4-43.2H1318.7z M1388.8,193.4l-30.7-94.7l-32.3,94.7H1388.8z"/>
	<path class="st2" d="M1575.3,65.1c0-7,4.5-11.8,10.9-11.8c6.7,0,11.2,4.8,11.2,11.8v181.1c0,13.1-3.8,20.5-10.9,20.5
		c-4.8,0-8-2.9-13.4-12.5l-83.2-149.8v150.4c0,7-4.5,11.8-11.2,11.8c-6.4,0-10.9-4.8-10.9-11.8V73.4c0-13.8,3.5-20.2,10.6-20.2
		c4.5,0,9,3.2,11.8,8.3l85.1,150.7V65.1z"/>
</g>
<path class="st1" d="M913.2,331.5c7,0,11.8,4.5,11.8,10.9c0,6.7-4.8,11.2-11.8,11.2H723.5c-7,0-11.8-4.5-11.8-11.2
	c0-6.4,4.8-10.9,11.8-10.9H913.2z"/>
<g>
	<polygon class="st3" points="1839.3,124 1844.3,126.8 1857,102.2 1834.7,115.2 	"/>
	<polygon class="st3" points="1764.5,122.9 1767.3,117.9 1742.7,105.2 1755.7,127.5 	"/>
	<polygon class="st3" points="1763.4,197.7 1758.4,194.9 1745.7,219.5 1768,206.5 	"/>
	<polygon class="st3" points="1838.2,198.8 1835.4,203.8 1860,216.5 1847,194.2 	"/>
</g>
<g>
</g>
<g>
</g>
<g>
</g>
<g>
</g>
<g>
</g>
<g>
</g>
</svg>
