<svg xmlns="http://www.w3.org/2000/svg" viewBox="0 0 125.43 78.39"><defs><style>.cls-1{fill:#084d95;}.cls-2{fill:#fff;}</style></defs><title>diners</title><g id="Capa_2" data-name="Capa 2"><g id="Layer_1" data-name="Layer 1"><rect class="cls-1" width="125.43" height="78.39" rx="4.18" ry="4.18"/><path class="cls-2" d="M65.71,42.76c7.09,0,13.56-5.78,13.56-12.85,0-7.73-6.47-13.08-13.56-13.08h-6.1A12.79,12.79,0,0,0,46.54,29.91,13,13,0,0,0,59.61,42.76Z"/><path class="cls-1" d="M62.34,36.79v-14a7.52,7.52,0,0,1,0,14m-10.21-7a7.54,7.54,0,0,1,4.83-7v14a7.53,7.53,0,0,1-4.83-7M59.64,17.9A11.87,11.87,0,1,0,71.51,29.77,11.87,11.87,0,0,0,59.64,17.9"/><path class="cls-2" d="M33.28,51.61c0,1.06.76,1.18,1.43,1.18,3,0,3.94-2.23,3.94-4.28a4.12,4.12,0,0,0-4.29-4.41c-.56,0-.82,0-1.07.06Zm-1.34-6.43c0-1.23-.64-1.15-1.26-1.16v-.36c.54,0,1.08,0,1.62,0s1.36,0,2.37,0c3.55,0,5.48,2.37,5.48,4.8,0,1.36-.79,4.77-5.65,4.77l-2,0-1.84,0v-.36c.82-.08,1.22-.11,1.26-1Z"/><path class="cls-2" d="M42.1,44.85a.67.67,0,0,1,0-1.35.67.67,0,0,1,.67.66.68.68,0,0,1-.67.69m-1.47,8h.26c.38,0,.66,0,.66-.45V48.7c0-.6-.21-.69-.71-1v-.22c.64-.19,1.41-.45,1.47-.49a.47.47,0,0,1,.25-.07c.07,0,.1.08.1.19v5.26c0,.45.3.45.69.45h.23v.36l-1.44,0-1.49,0Z"/><path class="cls-2" d="M44.86,48.78c0-.51-.15-.64-.79-.9v-.26A18,18,0,0,0,45.88,47s.08,0,.08.14V48a4,4,0,0,1,2.38-1c1.16,0,1.57.85,1.57,1.92v3.54c0,.45.3.45.69.45h.25v.36l-1.45,0-1.48,0v-.36h.24c.38,0,.66,0,.66-.45V48.87c0-.78-.48-1.17-1.26-1.17a3.66,3.66,0,0,0-1.59.66v4.06c0,.45.3.45.69.45h.25v.36l-1.45,0-1.48,0v-.36h.25c.38,0,.66,0,.66-.45Z"/><path class="cls-2" d="M54.31,49c.34,0,.38-.18.38-.34A1.16,1.16,0,0,0,53.5,47.4c-.84,0-1.41.62-1.58,1.6Zm-2.43.44a3.46,3.46,0,0,0,0,.79,2.29,2.29,0,0,0,2,2.37,2.63,2.63,0,0,0,1.85-.92l.19.19a3.21,3.21,0,0,1-2.54,1.55c-2.18,0-2.62-2.11-2.62-3,0-2.69,1.81-3.48,2.77-3.48a2.18,2.18,0,0,1,2.32,2.15,1.74,1.74,0,0,1,0,.25l-.12.08Z"/><path class="cls-2" d="M56.19,52.87h.37c.38,0,.66,0,.66-.45V48.56c0-.42-.51-.51-.71-.62v-.21c1-.43,1.55-.78,1.67-.78s.12,0,.12.18v1.23h0c.34-.53.92-1.41,1.75-1.41a.75.75,0,0,1,.78.73.67.67,0,0,1-.64.7c-.43,0-.43-.33-.91-.33a1.16,1.16,0,0,0-1,1.14v3.22c0,.45.27.45.66.45h.77v.36l-1.92,0-1.63,0Z"/><path class="cls-2" d="M61.46,51.32A1.81,1.81,0,0,0,63.19,53a1,1,0,0,0,1.11-1c0-1.62-3-1.1-3-3.3A1.88,1.88,0,0,1,63.44,47a3.62,3.62,0,0,1,1.56.4l.1,1.4h-.32a1.41,1.41,0,0,0-1.49-1.35,1,1,0,0,0-1.07.9c0,1.6,3.18,1.11,3.18,3.26,0,.91-.73,1.86-2.36,1.86A3.61,3.61,0,0,1,61.37,53l-.15-1.58Z"/><path class="cls-2" d="M77.78,46.14h-.34a2.61,2.61,0,0,0-2.93-2.25c-1.58,0-3.87,1.05-3.87,4.35,0,2.77,2,4.76,4.09,4.76a2.79,2.79,0,0,0,2.76-2.37l.31.08-.31,2a7.69,7.69,0,0,1-3,.73,4.88,4.88,0,0,1-5.23-5.15,5,5,0,0,1,5.19-4.83,9.91,9.91,0,0,1,3.24.73Z"/><path class="cls-2" d="M78.27,52.87h.26c.38,0,.66,0,.66-.45V44.78c0-.89-.21-.92-.73-1.07v-.22a8.56,8.56,0,0,0,1.41-.59,1.37,1.37,0,0,1,.3-.15c.08,0,.11.08.11.19v9.47c0,.45.3.45.69.45h.23v.36l-1.44,0-1.49,0Z"/><path class="cls-2" d="M87.07,52.47c0,.25.15.26.38.26H88V53a14.21,14.21,0,0,0-2,.42l-.07,0V52.28a3.7,3.7,0,0,1-2.43,1.15A1.48,1.48,0,0,1,82,51.8V48.29c0-.36-.05-.7-.82-.77v-.26c.49,0,1.59-.1,1.77-.1s.15.1.15.4V51.1c0,.41,0,1.59,1.19,1.59A3.07,3.07,0,0,0,86,51.85V48.17c0-.27-.66-.42-1.15-.56v-.25c1.23-.08,2-.19,2.14-.19s.11.1.11.25Z"/><path class="cls-2" d="M89.8,51.67a1.48,1.48,0,0,0,1.41,1.4c1.47,0,2.08-1.44,2.08-2.66A2.61,2.61,0,0,0,91.1,47.7a2.11,2.11,0,0,0-1.3.65Zm0-3.73a3.47,3.47,0,0,1,2-1,2.67,2.67,0,0,1,2.55,2.88,3.46,3.46,0,0,1-3.28,3.59A4.06,4.06,0,0,1,89.21,53l-.41.31-.29-.15a16.28,16.28,0,0,0,.19-2.44V44.78c0-.89-.21-.92-.73-1.07v-.22a8.68,8.68,0,0,0,1.41-.59,1.31,1.31,0,0,1,.3-.15c.08,0,.11.08.11.19Z"/><path class="cls-2" d="M30.66,61.19h.11c.27,0,.55,0,.55-.43V56.86c0-.39-.28-.43-.55-.43h-.11v-.22l1.11,0,1.17,0v.22h-.1c-.27,0-.55,0-.55.43v3.91c0,.39.29.43.55.43h.1v.22l-1.18,0c-.37,0-.8,0-1.1,0Z"/><path class="cls-2" d="M32.9,61.39v-.16h-.07c-.27,0-.58,0-.59-.46V56.86c0-.41.32-.46.59-.46h.07v-.16l-1.14,0-1.07,0v.16h.07c.27,0,.58,0,.58.46v3.91c0,.41-.32.46-.58.46h-.07v.16l1.06,0,1.15,0m0,.06-1.18,0-1.1,0h0v-.29h.13c.27,0,.52,0,.52-.39V56.86c0-.37-.25-.39-.52-.39h-.13v-.29h0l1.11,0,1.17,0h0v.29h-.14c-.27,0-.52,0-.52.39v3.91c0,.37.25.39.52.39H33v.29Z"/><path class="cls-2" d="M38.06,59.95V57.14a.61.61,0,0,0-.65-.7h-.16v-.22c.35,0,.69,0,1,0l.92,0v.22h-.11c-.31,0-.66.06-.66.95v3.39a4.88,4.88,0,0,0,0,.75h-.28l-3.84-4.28v3.07c0,.65.13.87.7.87h.13v.22c-.32,0-.64,0-1,0s-.68,0-1,0v-.22h.11c.51,0,.67-.35.67-.95V57.11a.67.67,0,0,0-.68-.67h-.1v-.22l.86,0c.23,0,.44,0,.67,0Z"/><path class="cls-2" d="M38,59.93h0Zm0,0,0,0Zm.15,1.55h.25a4.77,4.77,0,0,1,0-.72v-3.4c0-.89.38-1,.7-1h.08v-.16c-.29,0-.59,0-.88,0s-.68,0-1,0v.16h.13a.65.65,0,0,1,.68.73V60h0l0,0-3.32-3.75c-.22,0-.44,0-.67,0s-.55,0-.82,0v.16h.07a.7.7,0,0,1,.71.7v3.14c0,.6-.17,1-.7,1h-.07v.16l1,0c.31,0,.62,0,.93,0v-.16h-.09c-.59,0-.73-.26-.73-.91V57.16Zm.28.06h-.31L34.4,57.33v3c0,.65.11.83.67.84h.16v.29h0l-1,0-1,0h0v-.29h.14c.49,0,.63-.32.64-.91V57.11a.64.64,0,0,0-.65-.64h-.13v-.29h0l.86,0c.22,0,.44,0,.69,0L38,59.88V57.14c0-.59-.4-.66-.62-.67h-.2v-.29h0l1,0,.92,0h0v.29h-.14c-.31,0-.62,0-.63.91v3.4a5,5,0,0,0,0,.75v0Z"/><path class="cls-2" d="M40.34,56.58c-.56,0-.58.13-.69.68h-.22c0-.21.07-.42.09-.63a4.84,4.84,0,0,0,0-.63h.18c.06.22.25.22.45.22H44c.2,0,.39,0,.4-.23l.18,0c0,.2-.06.4-.08.6s0,.4,0,.6l-.22.08c0-.28-.05-.72-.55-.72H42.52v4c0,.57.26.64.62.64h.14v.22c-.29,0-.81,0-1.21,0s-1,0-1.26,0v-.22h.14c.41,0,.62,0,.62-.63v-4Z"/><path class="cls-2" d="M43.28,61.45l-1.22,0c-.45,0-1,0-1.26,0h0v-.29h.17c.41,0,.58,0,.59-.59v-4H40.34v-.07H41.6v4c0,.6-.24.66-.65.66h-.11v.16c.29,0,.79,0,1.23,0l1.18,0v-.16h-.11c-.36,0-.65-.09-.65-.67v-4h1.26c.5,0,.56.43.58.7l.16-.06c0-.19,0-.39,0-.59s0-.38.08-.57l-.11,0c0,.22-.24.23-.43.22H40.15c-.18,0-.37,0-.43-.22h-.12a4.73,4.73,0,0,1,0,.6c0,.21-.05.4-.08.6h.16c.1-.52.16-.69.72-.68v.07c-.55,0-.54.1-.66.65v0h-.29v0c0-.21.07-.42.09-.63a4.19,4.19,0,0,0,0-.63v0h.24v0c.05.19.19.19.38.19H44c.21,0,.36,0,.37-.2v0h0l.21,0v0c0,.2-.06.4-.08.6s0,.4,0,.6v0h0l-.26.1v0c0-.28,0-.68-.52-.68H42.55v3.94c0,.56.23.6.59.61h.17v.29Z"/><path class="cls-2" d="M44.85,61.19H45c.27,0,.55,0,.55-.43V56.86c0-.39-.28-.43-.55-.43h-.11v-.22c.46,0,1.23,0,1.86,0l1.91,0c0,.32,0,.81,0,1.14l-.22.06c0-.48-.12-.87-.91-.87h-1v2h.89c.45,0,.55-.25.59-.66h.22c0,.29,0,.58,0,.87s0,.57,0,.85l-.22,0c0-.45-.07-.74-.58-.74h-.89V60.6c0,.49.43.49.91.49.9,0,1.29-.06,1.51-.91l.21.05c-.1.4-.19.79-.25,1.19-.48,0-1.34,0-2,0s-1.56,0-2,0Z"/><path class="cls-2" d="M48.81,61.38c.07-.38.15-.75.24-1.13l-.15,0c-.22.84-.66.91-1.54.9-.47,0-.94,0-.94-.52V58.84h.93c.52,0,.57.31.61.73l.16,0c0-.27,0-.55,0-.82s0-.56,0-.84H48c0,.39-.16.66-.62.66h-.92v-2H47.5c.78,0,.9.39.94.86l.16,0c0-.21,0-.48,0-.73s0-.25,0-.35l-1.87,0c-.61,0-1.37,0-1.82,0v.16H45c.26,0,.58,0,.58.46v3.91c0,.41-.32.46-.58.46h-.07v.16l2,0,2,0m0,.06-2,0-2,0h0v-.29H45c.27,0,.52,0,.52-.39V56.86c0-.36-.25-.39-.52-.39h-.14v-.29h0l1.86,0,1.91,0h0v0c0,.11,0,.25,0,.38s0,.54,0,.75v0h0l-.26.07v0c0-.48-.11-.84-.88-.84h-1v1.89h.86c.43,0,.51-.22.56-.63v0h.29v0c0,.29,0,.58,0,.87s0,.56,0,.85v0h0l-.26.05v0c-.05-.46-.05-.7-.55-.71h-.86V60.6c0,.45.39.45.88.45.9,0,1.26,0,1.48-.89v0h0l.24.06v0c-.1.39-.19.79-.25,1.19v0Z"/><path class="cls-2" d="M51.06,58.73h.37c.75,0,1.15-.28,1.15-1.16a1,1,0,0,0-1.09-1.09,3.92,3.92,0,0,0-.43,0ZM50.1,57c0-.54-.3-.57-.53-.57h-.13v-.22c.24,0,.7,0,1.16,0s.8,0,1.2,0c.94,0,1.78.25,1.78,1.31a1.41,1.41,0,0,1-1,1.31l1.28,1.91a.83.83,0,0,0,.72.45v.22c-.25,0-.49,0-.73,0s-.47,0-.7,0A20.56,20.56,0,0,1,51.55,59h-.49v1.6c0,.57.27.6.61.6h.13v.22c-.42,0-.86,0-1.28,0s-.71,0-1.08,0v-.22h.13c.28,0,.53-.13.53-.4Z"/><path class="cls-2" d="M51.42,58.7c.74,0,1.11-.26,1.12-1.13a1,1,0,0,0-1.06-1.06,3.11,3.11,0,0,0-.39,0V58.7Zm-.37.06h0V56.48h0a3.4,3.4,0,0,1,.43,0,1.05,1.05,0,0,1,1.12,1.12c0,.89-.43,1.19-1.18,1.19Zm0,.2h.51v0a23.08,23.08,0,0,0,1.53,2.4l.7,0,.7,0v-.16a.85.85,0,0,1-.72-.46l-1.3-1.94,0,0a1.37,1.37,0,0,0,1-1.28c0-1-.81-1.28-1.74-1.28-.39,0-.75,0-1.2,0s-.88,0-1.12,0v.16h.1c.23,0,.56,0,.56.6v3.79c0,.3-.28.44-.56.44h-.1v.16l1,0,1.25,0v-.16h-.1c-.34,0-.64,0-.64-.63V59Zm3.48,2.48-.73,0c-.23,0-.46,0-.72,0A20.88,20.88,0,0,1,51.53,59h-.44V60.6c0,.56.23.56.58.56h.17v.29h0l-1.28,0-1.08,0h0v-.29h.17c.27,0,.5-.12.5-.37V57c0-.53-.26-.53-.5-.53h-.17v-.29h0c.24,0,.7,0,1.16,0s.8,0,1.2,0c.94,0,1.81.26,1.81,1.35a1.43,1.43,0,0,1-1,1.33l1.25,1.88a.8.8,0,0,0,.7.43h0v.28Z"/><path class="cls-2" d="M59.6,59.95V57.14a.62.62,0,0,0-.65-.7H58.8v-.22c.35,0,.69,0,1,0s.61,0,.92,0v.22h-.11c-.31,0-.66.06-.66.95v3.39a5.14,5.14,0,0,0,0,.75h-.28l-3.84-4.28v3.07c0,.65.13.87.7.87h.13v.22c-.32,0-.64,0-1,0s-.68,0-1,0v-.22h.1c.52,0,.67-.35.67-.95V57.11a.67.67,0,0,0-.68-.67h-.1v-.22l.86,0c.22,0,.44,0,.66,0Z"/><path class="cls-2" d="M59.58,59.93h0Zm0,0,0,0Zm.15,1.55H60a5,5,0,0,1,0-.72v-3.4c0-.89.38-1,.7-1h.08v-.16c-.29,0-.59,0-.88,0s-.68,0-1,0v.16H59a.65.65,0,0,1,.68.73V60h0l0,0-3.32-3.75c-.22,0-.44,0-.66,0s-.55,0-.83,0v.16h.07a.7.7,0,0,1,.71.7v3.14c0,.6-.17,1-.7,1h-.07v.16l1,0,.93,0v-.16h-.1c-.59,0-.73-.26-.74-.91V57.17Zm.28.06h-.31l-3.79-4.22v3c0,.65.11.83.67.84h.16v.29h0l-1,0-1,0h0v-.29h.14c.49,0,.63-.32.64-.91V57.11a.64.64,0,0,0-.65-.64h-.13v-.29h0l.86,0c.22,0,.44,0,.69,0l3.28,3.69V57.14c0-.59-.4-.67-.62-.67h-.2v-.29h0l1,0,.92,0h0v.29h-.14c-.31,0-.62,0-.63.91v3.4a4.82,4.82,0,0,0,0,.75v0Z"/><path class="cls-2" d="M63.05,57h0l-.69,2.11h1.39ZM62,60.35a3.09,3.09,0,0,0-.17.58c0,.22.31.26.56.26h.08v.22c-.3,0-.61,0-.91,0s-.53,0-.8,0v-.22h0a.67.67,0,0,0,.65-.49l1.2-3.42a6.15,6.15,0,0,0,.28-.93,3.88,3.88,0,0,0,.68-.32l.06,0a.05.05,0,0,1,.05,0l.07.19,1.37,3.9c.09.26.18.54.28.76a.47.47,0,0,0,.49.3h0v.22c-.33,0-.67,0-1,0l-1.12,0v-.22h.08c.17,0,.46,0,.46-.22a2.27,2.27,0,0,0-.15-.54l-.29-.86H62.2Z"/><path class="cls-2" d="M63,57.06h0Zm-.63,2.07h1.31l-.65-2Zm-.09.06L63,57h0v0h0v0h0l.71,2.18Zm1.53,2.19,1.09,0,1,0v-.16h0a.5.5,0,0,1-.52-.32c-.1-.23-.19-.5-.28-.76l-1.37-3.9-.06-.18h-.07a2.8,2.8,0,0,1-.66.3,6.32,6.32,0,0,1-.28.93l-1.19,3.42a.71.71,0,0,1-.68.51h0v.16l.77,0,.87,0v-.16h0c-.24,0-.58,0-.59-.29a3.1,3.1,0,0,1,.16-.59h0l.25-.8h1.74l.3.89a2.34,2.34,0,0,1,.15.55c0,.23-.33.24-.5.25h0Zm2.11.07c-.33,0-.67,0-1,0l-1.12,0h0v-.29h.11c.17,0,.43,0,.43-.18a2.29,2.29,0,0,0-.15-.53l-.28-.84H62.22l-.23.75a3.17,3.17,0,0,0-.17.57c0,.18.28.23.53.23h.12v.29h0l-.9,0-.8,0h0v-.29h.08a.64.64,0,0,0,.62-.46l1.2-3.42a9.1,9.1,0,0,0,.3-.95,4,4,0,0,0,.68-.32l.07,0a.09.09,0,0,1,.08,0l.07.19,1.37,3.9c.09.26.18.54.28.76a.43.43,0,0,0,.46.28H66v.29Z"/><path class="cls-2" d="M66.26,56.58c-.56,0-.58.13-.69.68h-.22c0-.21.07-.42.09-.63a4.53,4.53,0,0,0,0-.63h.18c.06.22.25.22.45.22H70c.2,0,.39,0,.4-.23l.18,0c0,.2-.06.4-.08.6s0,.4,0,.6l-.22.08c0-.28-.05-.72-.55-.72H68.44v4c0,.57.26.64.62.64h.14v.22c-.29,0-.81,0-1.22,0s-1,0-1.26,0v-.22h.14c.41,0,.62,0,.62-.63v-4Z"/><path class="cls-2" d="M69.2,61.45l-1.22,0c-.45,0-1,0-1.26,0h0v-.29h.17c.41,0,.58,0,.59-.59v-4H66.26v-.07h1.26v4c0,.6-.24.66-.65.66h-.11v.16c.29,0,.8,0,1.23,0l1.18,0v-.16h-.11c-.36,0-.65-.09-.65-.67v-4h1.26c.5,0,.56.43.58.7l.16-.06c0-.19,0-.39,0-.59s0-.38.07-.57l-.11,0c0,.22-.24.23-.43.22H66.07c-.17,0-.37,0-.43-.22h-.12a4.12,4.12,0,0,1,0,.61c0,.21-.06.4-.09.6h.16c.1-.52.16-.69.72-.68v.07c-.55,0-.54.1-.66.65v0h-.29v0c0-.21.07-.42.09-.63a4.2,4.2,0,0,0,0-.63v0h.24v0c.05.19.19.19.38.19H70c.21,0,.36,0,.37-.2v0h0l.21,0v0c0,.2-.06.4-.08.6s0,.4,0,.6v0h0l-.27.1v0c0-.28,0-.68-.52-.68H68.47v3.94c0,.56.23.6.59.61h.17v.29Z"/><path class="cls-2" d="M70.81,61.19h.11c.27,0,.55,0,.55-.43V56.86c0-.39-.28-.43-.55-.43h-.11v-.22l1.1,0,1.17,0v.22H73c-.27,0-.55,0-.55.43v3.91c0,.39.28.43.55.43h.1v.22l-1.18,0c-.37,0-.81,0-1.1,0Z"/><path class="cls-2" d="M73.05,61.38v-.16H73c-.27,0-.59,0-.59-.46V56.86c0-.41.32-.46.59-.46h.07v-.16l-1.14,0-1.07,0v.16h.07c.26,0,.58,0,.58.46v3.91c0,.41-.32.46-.58.46h-.07v.16l1.07,0,1.14,0m0,.06-1.18,0-1.1,0h0v-.29h.14c.27,0,.52,0,.52-.39V56.86c0-.36-.25-.39-.52-.39h-.14v-.29h0l1.1,0,1.17,0h0v.29H73c-.28,0-.52,0-.52.39v3.91c0,.37.25.39.52.39h.13v.29Z"/><path class="cls-2" d="M76.18,61.2c1.45,0,1.7-1.28,1.7-2.36s-.59-2.41-1.83-2.41-1.69,1.16-1.69,2.16c0,1.34.61,2.61,1.82,2.61m-.11-5.1a2.62,2.62,0,0,1,2.86,2.57,2.73,2.73,0,0,1-2.82,2.86,2.64,2.64,0,0,1-2.79-2.68,2.71,2.71,0,0,1,2.75-2.75"/><path class="cls-2" d="M74.32,58.59c0-1,.39-2.19,1.73-2.19s1.86,1.35,1.86,2.44-.26,2.39-1.73,2.39v-.06c1.42,0,1.66-1.24,1.67-2.33s-.58-2.38-1.79-2.38-1.66,1.14-1.66,2.13c0,1.33.61,2.58,1.79,2.58v.06c-1.24,0-1.85-1.3-1.85-2.64m-1,.26a2.75,2.75,0,0,1,2.79-2.79v.07a2.68,2.68,0,0,0-2.72,2.72A2.6,2.6,0,0,0,76.1,61.5a2.71,2.71,0,0,0,2.79-2.82,2.58,2.58,0,0,0-2.83-2.54v-.07A2.65,2.65,0,0,1,79,58.67a2.77,2.77,0,0,1-2.85,2.89,2.67,2.67,0,0,1-2.82-2.71"/><path class="cls-2" d="M83.95,59.95l0,0v-2.8a.62.62,0,0,0-.65-.7h-.16v-.22c.35,0,.69,0,1,0l.92,0v.22H85c-.31,0-.66.06-.66.95v3.39a4.65,4.65,0,0,0,0,.75H84.1l-3.84-4.28v3.07c0,.65.13.87.7.87h.13v.22c-.32,0-.64,0-1,0s-.68,0-1,0v-.22h.11c.52,0,.67-.35.67-.95V57.11a.67.67,0,0,0-.68-.67h-.1v-.22l.86,0c.22,0,.44,0,.66,0Z"/><path class="cls-2" d="M83.93,59.93h0Zm0,0,0,0Zm.15,1.55h.24a5.35,5.35,0,0,1,0-.72v-3.4c0-.9.38-1,.7-1h.08v-.16c-.29,0-.59,0-.89,0s-.67,0-1,0v.16h.13a.65.65,0,0,1,.68.73V60h0l0,0-3.32-3.75c-.22,0-.44,0-.66,0s-.55,0-.83,0v.16h.06a.7.7,0,0,1,.71.7v3.14c0,.6-.17,1-.7,1h-.07v.16l1,0,.93,0v-.16H81c-.59,0-.73-.26-.73-.91V57.16Zm.28.06h-.31l-3.79-4.22v3c0,.65.11.83.67.84h.16v.29h0l-1,0-1,0h0v-.29h.14c.49,0,.63-.32.64-.91V57.11a.64.64,0,0,0-.65-.64h-.13v-.29h0l.86,0c.22,0,.44,0,.69,0l3.28,3.69V57.14c0-.59-.4-.66-.62-.67h-.2v-.29h0l1,0,.92,0h0v.29H85c-.31,0-.62,0-.63.91v3.4a4.8,4.8,0,0,0,0,.75v0Z"/><path class="cls-2" d="M87.4,57h0l-.69,2.11h1.4Zm-1.09,3.3a3.2,3.2,0,0,0-.16.58c0,.22.31.26.56.26h.08v.22c-.3,0-.61,0-.9,0s-.54,0-.8,0v-.22h0a.67.67,0,0,0,.65-.49L87,57.29a6.13,6.13,0,0,0,.27-.93,3.87,3.87,0,0,0,.68-.32L88,56s0,0,.05,0l.07.19,1.37,3.9c.09.26.18.54.28.76a.47.47,0,0,0,.49.3h0v.22c-.34,0-.67,0-1,0s-.74,0-1.12,0v-.22h.08c.17,0,.46,0,.46-.22a2.34,2.34,0,0,0-.15-.54l-.29-.86H86.55Z"/><path class="cls-2" d="M87.37,57.06h0Zm-.63,2.07H88l-.65-2Zm-.09.06L87.36,57h0v0h0v0h0l.71,2.18Zm1.52,2.19,1.09,0,1,0v-.16h0a.5.5,0,0,1-.52-.32c-.1-.23-.19-.5-.28-.76l-1.37-3.9L88,56.07h-.07a2.8,2.8,0,0,1-.66.3,6.32,6.32,0,0,1-.28.93l-1.2,3.42a.71.71,0,0,1-.68.51h0v.16l.77,0,.87,0v-.16H86.7c-.24,0-.58,0-.59-.29a3.17,3.17,0,0,1,.17-.59h0l.25-.8h1.74l.3.89a2.25,2.25,0,0,1,.15.55c0,.23-.32.24-.49.25h-.05Zm2.12.06c-.34,0-.67,0-1,0l-1.12,0h0v-.29h.11c.17,0,.43,0,.43-.18a2.31,2.31,0,0,0-.15-.53l-.28-.84H86.57l-.23.75a2.87,2.87,0,0,0-.16.57c0,.18.28.23.53.23h.12v.29h0l-.9,0-.8,0h0v-.29h.07a.65.65,0,0,0,.62-.46l1.19-3.42a9.12,9.12,0,0,0,.3-.95,4,4,0,0,0,.68-.32L88,56a.08.08,0,0,1,.08,0l.07.19,1.37,3.9c.09.26.18.54.28.76a.44.44,0,0,0,.46.28h.08v.29Z"/><path class="cls-2" d="M92.16,60.69c0,.3.21.39.45.42a5.33,5.33,0,0,0,1,0,1.07,1.07,0,0,0,.71-.4,1.69,1.69,0,0,0,.23-.54h.22c-.08.43-.19.84-.28,1.27-.66,0-1.31,0-2,0s-1.31,0-2,0v-.22h.1c.27,0,.56,0,.56-.5V56.86c0-.39-.29-.43-.56-.43h-.1v-.22c.4,0,.78,0,1.18,0s.75,0,1.13,0v.22h-.19c-.28,0-.51,0-.51.4Z"/><path class="cls-2" d="M94.46,61.38c.09-.4.18-.8.26-1.2h-.15a1.71,1.71,0,0,1-.23.52,1.11,1.11,0,0,1-.74.41c-.2,0-.39,0-.57,0l-.42,0c-.24,0-.48-.13-.48-.45V56.84c0-.42.26-.44.54-.44h.15v-.16c-.37,0-.73,0-1.1,0s-.77,0-1.15,0v.16h.07c.27,0,.59,0,.59.46v3.83c0,.48-.32.53-.59.53h-.07v.16l1.94,0,1.94,0m0,.06-2,0-2,0h0v-.29h.13c.27,0,.53,0,.53-.47V56.86c0-.36-.26-.39-.53-.39h-.13v-.29h0l1.18,0,1.13,0h0v.29h-.22c-.29,0-.47,0-.47.37v3.85c0,.28.19.35.42.38l.41,0a5.49,5.49,0,0,0,.56,0,1,1,0,0,0,.69-.39,1.6,1.6,0,0,0,.22-.52v0h.28v0c-.09.43-.19.84-.28,1.27v0Z"/></g></g></svg>