<svg xmlns="http://www.w3.org/2000/svg" viewBox="0 0 125.43 78.39"><defs><style>.cls-1{fill:#13457c;}.cls-2{fill:#ec1c2e;}.cls-3{fill:#0084c4;}.cls-4{fill:#fff;}.cls-5{fill:none;stroke:#fff;stroke-width:0.21px;}</style></defs><title>maestro</title><g id="Capa_2" data-name="Capa 2"><g id="Layer_1" data-name="Layer 1"><rect class="cls-1" width="125.43" height="78.39" rx="4.18" ry="4.18"/><polygon class="cls-2" points="77.64 61.71 78.81 61.68 79.95 61.59 81.08 61.45 82.19 61.25 83.28 61 84.35 60.7 85.4 60.34 86.43 59.93 87.43 59.48 88.39 58.99 89.34 58.45 90.25 57.85 91.14 57.23 91.99 56.56 92.81 55.85 93.59 55.1 94.33 54.32 95.05 53.5 95.72 52.65 96.35 51.77 96.93 50.85 97.47 49.9 97.97 48.93 98.43 47.93 98.83 46.91 99.18 45.86 99.48 44.79 99.73 43.7 99.94 42.59 100.08 41.46 100.16 40.31 100.19 39.15 100.16 38 100.08 36.86 99.94 35.74 99.73 34.63 99.48 33.55 99.18 32.49 98.83 31.44 98.43 30.42 97.97 29.43 97.47 28.46 96.93 27.52 96.35 26.61 95.72 25.73 95.05 24.87 94.33 24.06 93.59 23.28 92.81 22.54 91.99 21.83 91.14 21.16 90.25 20.53 89.34 19.95 88.39 19.41 87.43 18.9 86.43 18.45 85.4 18.05 84.35 17.7 83.28 17.39 82.19 17.14 81.08 16.94 79.95 16.8 78.81 16.71 77.64 16.68 76.48 16.71 75.34 16.8 74.21 16.94 73.1 17.14 72.01 17.39 70.94 17.7 69.89 18.05 68.87 18.45 67.87 18.9 66.9 19.41 65.96 19.95 65.05 20.53 64.17 21.16 63.31 21.83 62.5 22.54 61.72 23.28 60.98 24.06 60.27 24.87 59.6 25.73 58.97 26.61 58.39 27.52 57.85 28.46 57.35 29.43 56.91 30.42 56.5 31.44 56.15 32.49 55.85 33.55 55.6 34.63 55.4 35.74 55.26 36.86 55.17 38 55.14 39.15 55.17 40.31 55.26 41.46 55.4 42.59 55.6 43.7 55.85 44.79 56.15 45.86 56.5 46.91 56.91 47.93 57.35 48.93 57.85 49.9 58.39 50.85 58.97 51.77 59.6 52.65 60.27 53.5 60.98 54.32 61.72 55.1 62.5 55.85 63.31 56.56 64.17 57.23 65.05 57.85 65.96 58.45 66.9 58.99 67.87 59.48 68.87 59.93 69.89 60.34 70.94 60.7 72.01 61 73.1 61.25 74.21 61.45 75.34 61.59 76.48 61.68 77.64 61.71"/><polygon class="cls-3" points="47.78 61.71 48.95 61.68 50.09 61.59 51.22 61.45 52.33 61.25 53.42 61 54.49 60.7 55.54 60.34 56.56 59.93 57.56 59.48 58.53 58.99 59.47 58.45 60.38 57.85 61.27 57.23 62.12 56.56 62.93 55.85 63.71 55.1 64.45 54.32 65.16 53.5 65.83 52.65 66.46 51.77 67.05 50.85 67.58 49.9 68.08 48.93 68.53 47.93 68.93 46.91 69.28 45.86 69.58 44.79 69.83 43.7 70.03 42.59 70.17 41.46 70.26 40.31 70.29 39.15 70.26 38 70.17 36.86 70.03 35.74 69.83 34.63 69.58 33.55 69.28 32.49 68.93 31.44 68.53 30.42 68.08 29.43 67.58 28.46 67.05 27.52 66.46 26.61 65.83 25.73 65.16 24.87 64.45 24.06 63.71 23.28 62.93 22.54 62.12 21.83 61.27 21.16 60.38 20.53 59.47 19.95 58.53 19.41 57.56 18.9 56.56 18.45 55.54 18.05 54.49 17.7 53.42 17.39 52.33 17.14 51.22 16.94 50.09 16.8 48.95 16.71 47.78 16.68 46.63 16.71 45.48 16.8 44.35 16.94 43.24 17.14 42.15 17.39 41.08 17.7 40.03 18.05 39 18.45 38.01 18.9 37.04 19.41 36.09 19.95 35.18 20.53 34.29 21.16 33.44 21.83 32.62 22.54 31.84 23.28 31.1 24.06 30.39 24.87 29.71 25.73 29.08 26.61 28.5 27.52 27.96 28.46 27.45 29.43 27 30.42 26.61 31.44 26.25 32.49 25.95 33.55 25.7 34.63 25.5 35.74 25.36 36.86 25.27 38 25.24 39.15 25.27 40.31 25.36 41.46 25.5 42.59 25.7 43.7 25.95 44.79 26.25 45.86 26.61 46.91 27 47.93 27.45 48.93 27.96 49.9 28.5 50.85 29.08 51.77 29.71 52.65 30.39 53.5 31.1 54.32 31.84 55.1 32.62 55.85 33.44 56.56 34.29 57.23 35.18 57.85 36.09 58.45 37.04 58.99 38.01 59.48 39 59.93 40.03 60.34 41.08 60.7 42.15 61 43.24 61.25 44.35 61.45 45.48 61.59 46.63 61.68 47.78 61.71"/><polygon class="cls-2" points="59.94 25.26 71.36 25.26 71.36 24 61.04 24 59.94 25.26"/><polygon class="cls-2" points="58.15 27.92 71.36 27.92 71.36 26.67 58.95 26.67 58.15 27.92"/><polygon class="cls-2" points="56.81 30.63 71.36 30.63 71.36 29.37 57.43 29.37 56.81 30.63"/><polygon class="cls-2" points="55.94 33.29 71.36 33.29 71.36 32.04 56.32 32.04 55.94 33.29"/><polygon class="cls-2" points="55.37 35.96 71.36 35.96 71.36 34.71 55.6 34.71 55.37 35.96"/><polygon class="cls-2" points="55.25 41.13 71.36 41.13 71.36 39.88 55.14 39.88 55.25 41.13"/><polygon class="cls-2" points="55.64 43.95 71.36 43.95 71.36 42.7 55.41 42.7 55.64 43.95"/><polygon class="cls-2" points="56.4 46.24 71.36 46.24 71.36 44.98 56.01 44.98 56.4 46.24"/><polygon class="cls-2" points="57.53 49.02 71.36 49.02 71.36 47.76 56.93 47.76 57.53 49.02"/><polygon class="cls-2" points="59.14 51.84 71.36 51.84 71.36 50.58 58.3 50.58 59.14 51.84"/><polygon class="cls-2" points="61.15 54.55 71.25 54.55 71.25 53.29 60.05 53.29 61.15 54.55"/><polygon class="cls-2" points="96.49 52.98 96.56 52.78 96.67 52.59 96.81 52.43 96.97 52.3 97.15 52.2 97.35 52.13 97.57 52.11 97.79 52.13 98 52.2 98.18 52.3 98.34 52.43 98.48 52.59 98.58 52.78 98.65 52.98 98.42 52.98 98.37 52.84 98.29 52.68 98.19 52.55 98.06 52.45 97.91 52.37 97.74 52.31 97.57 52.3 97.39 52.31 97.22 52.37 97.07 52.45 96.94 52.55 96.84 52.68 96.75 52.84 96.71 52.98 96.49 52.98"/><polygon class="cls-2" points="97.18 52.98 97.18 52.71 97.6 52.71 97.7 52.72 97.78 52.73 97.86 52.75 97.91 52.78 97.96 52.82 98 52.86 98.02 52.91 98.03 52.98 97.83 52.98 97.83 52.98 97.83 52.94 97.81 52.91 97.79 52.88 97.76 52.86 97.72 52.85 97.69 52.84 97.65 52.83 97.6 52.83 97.38 52.83 97.38 52.98 97.18 52.98"/><polygon class="cls-2" points="96.47 53.17 96.49 52.99 96.49 52.98 96.71 52.98 96.7 53.02 96.69 53.17 96.47 53.17"/><polygon class="cls-2" points="97.18 53.17 97.18 52.98 97.38 52.98 97.38 53.13 97.57 53.13 97.64 53.13 97.69 53.13 97.74 53.13 97.77 53.11 97.8 53.1 97.82 53.07 97.83 53.03 97.83 52.98 98.03 52.98 98.03 52.98 98.02 53.05 98.01 53.11 97.98 53.15 97.96 53.17 97.18 53.17"/><polygon class="cls-2" points="98.44 53.17 98.43 53.02 98.42 52.98 98.65 52.98 98.65 52.99 98.67 53.17 98.44 53.17"/><polygon class="cls-2" points="96.47 53.17 96.47 53.21 96.49 53.43 96.56 53.64 96.67 53.81 96.81 53.98 96.97 54.1 97.15 54.2 97.35 54.26 97.57 54.28 97.79 54.26 98 54.2 98.18 54.1 98.34 53.98 98.48 53.81 98.58 53.64 98.65 53.43 98.67 53.21 98.67 53.17 98.44 53.17 98.44 53.21 98.43 53.4 98.37 53.58 98.29 53.73 98.19 53.87 98.06 53.98 97.91 54.06 97.74 54.11 97.57 54.13 97.39 54.11 97.22 54.06 97.07 53.98 96.94 53.87 96.84 53.73 96.75 53.58 96.7 53.4 96.69 53.21 96.69 53.17 96.47 53.17"/><polygon class="cls-2" points="97.18 53.17 97.18 53.63 97.38 53.63 97.38 53.25 97.57 53.25 97.8 53.63 97.99 53.63 97.72 53.25 97.78 53.25 97.85 53.24 97.9 53.22 97.94 53.19 97.96 53.17 97.18 53.17"/><polygon class="cls-4" points="72.77 37.26 72.62 37.25 72.47 37.24 72.34 37.21 72.21 37.2 72.07 37.18 71.94 37.16 71.8 37.13 71.65 37.11 71.5 37.09 71.33 37.08 71.15 37.07 70.95 37.06 70.73 37.06 70.48 37.07 70.21 37.08 69.91 37.1 69.7 37.13 69.5 37.18 69.31 37.24 69.15 37.3 69 37.38 68.87 37.47 68.76 37.58 68.67 37.68 68.6 37.8 68.56 37.92 68.54 38.05 68.54 38.18 68.57 38.32 68.62 38.46 68.7 38.6 68.81 38.75 69.02 38.94 69.27 39.09 69.57 39.23 69.89 39.34 70.22 39.45 70.56 39.56 70.92 39.69 71.26 39.83 71.58 40.01 71.88 40.23 72.15 40.5 72.37 40.83 72.54 41.22 72.65 41.7 72.69 42.26 72.65 42.93 72.57 43.42 72.44 43.87 72.27 44.27 72.05 44.62 71.8 44.93 71.53 45.2 71.22 45.43 70.9 45.63 70.56 45.79 70.2 45.92 69.84 46.03 69.48 46.11 69.11 46.17 68.76 46.21 68.42 46.23 68.09 46.24 67.63 46.24 67.21 46.23 66.84 46.23 66.49 46.22 66.17 46.2 65.89 46.19 65.62 46.17 65.39 46.14 65.16 46.11 64.96 46.07 64.76 46.03 64.57 45.98 64.4 45.93 64.22 45.88 64.04 45.81 63.85 45.74 64.31 43.42 64.42 43.44 64.54 43.48 64.7 43.52 64.87 43.56 65.07 43.6 65.29 43.65 65.53 43.69 65.78 43.74 66.05 43.78 66.33 43.81 66.61 43.84 66.92 43.87 67.22 43.89 67.53 43.89 67.84 43.89 68.16 43.88 68.46 43.83 68.7 43.75 68.89 43.63 69.03 43.5 69.14 43.34 69.23 43.18 69.29 43.02 69.34 42.85 69.36 42.68 69.35 42.53 69.31 42.39 69.26 42.27 69.17 42.16 69.07 42.05 68.94 41.96 68.81 41.87 68.65 41.79 68.48 41.7 68.29 41.62 68.1 41.55 67.91 41.48 67.7 41.39 67.5 41.31 67.28 41.22 67.07 41.13 66.86 41.04 66.66 40.93 66.46 40.81 66.27 40.68 66.09 40.54 65.92 40.38 65.76 40.21 65.62 40.02 65.5 39.81 65.39 39.58 65.31 39.34 65.24 39.06 65.21 38.77 65.2 38.44 65.22 38.09 65.24 37.88 65.28 37.67 65.31 37.47 65.35 37.28 65.39 37.09 65.44 36.91 65.51 36.74 65.58 36.57 65.66 36.41 65.74 36.26 65.84 36.12 65.94 35.98 66.05 35.85 66.17 35.72 66.3 35.6 66.44 35.49 66.58 35.39 66.74 35.29 66.91 35.2 67.09 35.11 67.27 35.04 67.47 34.97 67.68 34.91 67.9 34.85 68.14 34.8 68.38 34.75 68.64 34.71 68.9 34.68 69.18 34.66 69.48 34.65 69.78 34.63 70.1 34.63 70.49 34.63 70.85 34.64 71.16 34.65 71.46 34.66 71.72 34.68 71.95 34.69 72.17 34.71 72.36 34.73 72.53 34.75 72.67 34.77 72.81 34.79 72.93 34.81 73.04 34.83 73.13 34.84 73.22 34.85 73.3 34.86 72.77 37.26"/><polyline class="cls-5" points="72.77 37.26 72.77 37.26 72.62 37.25 72.47 37.24 72.34 37.21 72.21 37.2 72.07 37.18 71.94 37.16 71.8 37.13 71.65 37.11 71.5 37.09 71.33 37.08 71.15 37.07 70.95 37.06 70.73 37.06 70.48 37.07 70.21 37.08 69.91 37.1 69.91 37.1 69.7 37.13 69.5 37.18 69.31 37.24 69.15 37.3 69 37.38 68.87 37.47 68.76 37.58 68.67 37.68 68.6 37.8 68.56 37.92 68.54 38.05 68.54 38.18 68.57 38.32 68.62 38.46 68.7 38.6 68.81 38.75 68.81 38.75 69.02 38.94 69.27 39.09 69.57 39.23 69.89 39.34 70.22 39.45 70.56 39.56 70.92 39.69 71.26 39.83 71.58 40.01 71.88 40.23 72.15 40.5 72.37 40.83 72.54 41.22 72.65 41.7 72.69 42.26 72.65 42.93 72.65 42.93 72.57 43.42 72.44 43.87 72.27 44.27 72.05 44.62 71.8 44.93 71.53 45.2 71.22 45.43 70.9 45.63 70.56 45.79 70.2 45.92 69.84 46.03 69.48 46.11 69.11 46.17 68.76 46.21 68.42 46.23 68.09 46.24 68.09 46.24 67.63 46.24 67.21 46.23 66.84 46.23 66.49 46.22 66.17 46.2 65.89 46.19 65.62 46.17 65.39 46.14 65.16 46.11 64.96 46.07 64.76 46.03 64.57 45.98 64.4 45.93 64.22 45.88 64.04 45.81 63.85 45.74 64.31 43.42 64.31 43.42 64.42 43.44 64.54 43.48 64.7 43.52 64.87 43.56 65.07 43.6 65.29 43.65 65.53 43.69 65.78 43.74 66.05 43.78 66.33 43.81 66.61 43.84 66.92 43.87 67.22 43.89 67.53 43.89 67.84 43.89 68.16 43.88 68.16 43.88 68.46 43.83 68.7 43.75 68.89 43.63 69.03 43.5 69.14 43.34 69.23 43.18 69.29 43.02 69.34 42.85 69.34 42.85 69.36 42.68 69.35 42.53 69.31 42.39 69.26 42.27 69.17 42.16 69.07 42.05 68.94 41.96 68.81 41.87 68.65 41.79 68.48 41.7 68.29 41.62 68.1 41.55 67.91 41.48 67.7 41.39 67.5 41.31 67.28 41.22 67.07 41.13 66.86 41.04 66.66 40.93 66.46 40.81 66.27 40.68 66.09 40.54 65.92 40.38 65.76 40.21 65.62 40.02 65.5 39.81 65.39 39.58 65.31 39.34 65.24 39.06 65.21 38.77 65.2 38.44 65.22 38.09 65.22 38.09 65.24 37.88 65.28 37.67 65.31 37.47 65.35 37.28 65.39 37.09 65.44 36.91 65.51 36.74 65.58 36.57 65.66 36.41 65.74 36.26 65.84 36.12 65.94 35.98 66.05 35.85 66.17 35.72 66.3 35.6 66.44 35.49 66.58 35.39 66.74 35.29 66.91 35.2 67.09 35.11 67.27 35.04 67.47 34.97 67.68 34.91 67.9 34.85 68.14 34.8 68.38 34.75 68.64 34.71 68.9 34.68 69.18 34.66 69.48 34.65 69.78 34.63 70.1 34.63 70.1 34.63 70.49 34.63 70.85 34.64 71.16 34.65 71.46 34.66 71.72 34.68 71.95 34.69 72.17 34.71 72.36 34.73 72.53 34.75 72.67 34.77 72.81 34.79 72.93 34.81 73.04 34.83 73.13 34.84 73.22 34.85 73.3 34.86 72.77 37.26"/><polygon class="cls-4" points="75.2 32.31 78.18 32.31 77.72 34.9 79.55 34.9 79.13 37.26 77.26 37.22 76.28 43.12 76.26 43.24 76.26 43.35 76.28 43.45 76.31 43.54 76.35 43.61 76.4 43.69 76.47 43.75 76.54 43.79 76.63 43.84 76.72 43.87 76.82 43.9 76.93 43.92 77.05 43.94 77.16 43.95 77.29 43.95 77.42 43.95 77.65 43.95 77.86 43.94 78.05 43.91 78.22 43.87 78.34 43.84 78.44 43.8 78.5 43.77 78.52 43.76 78.22 45.78 78.14 45.83 78.06 45.86 77.98 45.9 77.9 45.94 77.82 45.97 77.72 46 77.64 46.02 77.53 46.05 77.43 46.08 77.32 46.11 77.19 46.13 77.06 46.15 76.92 46.17 76.77 46.2 76.6 46.22 76.42 46.24 75.63 46.24 75.2 46.21 74.83 46.17 74.49 46.11 74.2 46.02 73.96 45.94 73.75 45.83 73.58 45.7 73.44 45.56 73.33 45.4 73.25 45.23 73.2 45.05 73.17 44.84 73.16 44.63 73.17 44.39 73.19 44.15 73.23 43.88 75.2 32.31"/><polyline class="cls-5" points="75.2 32.31 78.18 32.31 77.72 34.9 79.55 34.9 79.13 37.26 77.26 37.22 76.28 43.12 76.28 43.12 76.26 43.24 76.26 43.35 76.28 43.45 76.31 43.54 76.35 43.61 76.4 43.69 76.47 43.75 76.54 43.79 76.63 43.84 76.72 43.87 76.82 43.9 76.93 43.92 77.05 43.94 77.16 43.95 77.29 43.95 77.42 43.95 77.42 43.95 77.65 43.95 77.86 43.94 78.05 43.91 78.22 43.87 78.34 43.84 78.44 43.8 78.5 43.77 78.52 43.76 78.22 45.78 78.22 45.78 78.14 45.83 78.06 45.86 77.98 45.9 77.9 45.94 77.82 45.97 77.72 46 77.64 46.02 77.53 46.05 77.43 46.08 77.32 46.11 77.19 46.13 77.06 46.15 76.92 46.17 76.77 46.2 76.6 46.22 76.42 46.24 75.63 46.24 75.63 46.24 75.2 46.21 74.83 46.17 74.49 46.11 74.2 46.02 73.96 45.94 73.75 45.83 73.58 45.7 73.44 45.56 73.33 45.4 73.25 45.23 73.2 45.05 73.17 44.84 73.16 44.63 73.17 44.39 73.19 44.15 73.23 43.88 75.2 32.31"/><polygon class="cls-4" points="57.12 41.29 57.09 41.48 57.08 41.66 57.09 41.86 57.14 42.05 57.2 42.25 57.28 42.45 57.39 42.64 57.52 42.83 57.65 43.01 57.82 43.18 57.99 43.33 58.17 43.47 58.37 43.58 58.58 43.68 58.8 43.75 59.02 43.81 59.29 43.84 59.56 43.88 59.83 43.91 60.1 43.92 60.38 43.93 60.66 43.93 60.95 43.92 61.23 43.89 61.52 43.85 61.81 43.8 62.11 43.72 62.4 43.63 62.7 43.52 63.01 43.38 63.31 43.22 63.63 43.04 63.17 45.67 63 45.76 62.83 45.84 62.67 45.91 62.51 45.97 62.34 46.02 62.18 46.07 62.01 46.11 61.83 46.14 61.64 46.17 61.43 46.19 61.2 46.21 60.95 46.22 60.69 46.23 60.39 46.23 60.07 46.24 59.71 46.24 59.45 46.24 59.19 46.23 58.93 46.21 58.66 46.18 58.39 46.14 58.12 46.1 57.85 46.04 57.59 45.98 57.33 45.9 57.07 45.82 56.82 45.72 56.57 45.61 56.32 45.48 56.09 45.35 55.86 45.2 55.64 45.04 55.44 44.86 55.24 44.67 55.04 44.46 54.87 44.24 54.71 44 54.56 43.75 54.43 43.47 54.31 43.18 54.21 42.87 54.13 42.55 54.06 42.21 54.02 41.84 53.99 41.45 53.99 41.05 54 40.63 54.04 40.18 54.06 40.03 54.08 39.85 54.11 39.67 54.15 39.48 54.19 39.28 54.24 39.07 54.3 38.86 54.35 38.63 54.43 38.41 54.51 38.18 54.61 37.95 54.71 37.73 54.83 37.49 54.95 37.27 55.1 37.04 55.24 36.81 55.41 36.6 55.59 36.39 55.78 36.18 56 35.99 56.22 35.79 56.47 35.62 56.72 35.45 57 35.3 57.3 35.16 57.62 35.04 57.95 34.93 58.31 34.84 58.68 34.77 59.08 34.71 59.5 34.68 59.94 34.67 60.15 34.67 60.35 34.68 60.57 34.7 60.78 34.72 61 34.75 61.22 34.8 61.44 34.85 61.65 34.91 61.87 34.97 62.08 35.05 62.28 35.14 62.49 35.25 62.68 35.37 62.87 35.49 63.05 35.64 63.23 35.79 63.39 35.96 63.54 36.15 63.68 36.36 63.81 36.57 63.93 36.81 64.03 37.06 64.12 37.33 64.19 37.62 64.25 37.93 64.28 38.26 64.3 38.6 64.3 38.98 64.28 39.37 64.24 39.78 64.17 40.22 64.08 40.68 63.97 41.33 56.28 41.33 56.74 39.27 61.35 39.27 61.37 38.99 61.37 38.73 61.35 38.49 61.31 38.26 61.25 38.06 61.18 37.88 61.08 37.72 60.97 37.57 60.84 37.44 60.7 37.33 60.55 37.24 60.4 37.16 60.23 37.1 60.05 37.06 59.87 37.04 59.68 37.03 59.47 37.03 59.27 37.06 59.08 37.09 58.9 37.16 58.73 37.24 58.57 37.33 58.42 37.44 58.27 37.57 58.15 37.72 58.02 37.87 57.91 38.04 57.81 38.23 57.72 38.42 57.65 38.63 57.59 38.85 57.53 39.08 57.12 41.29"/><polyline class="cls-5" points="57.12 41.29 57.12 41.29 57.09 41.48 57.08 41.66 57.09 41.86 57.14 42.05 57.2 42.25 57.28 42.45 57.39 42.64 57.52 42.83 57.65 43.01 57.82 43.18 57.99 43.33 58.17 43.47 58.37 43.58 58.58 43.68 58.8 43.75 59.02 43.81 59.02 43.81 59.29 43.84 59.56 43.88 59.83 43.91 60.1 43.92 60.38 43.93 60.66 43.93 60.95 43.92 61.23 43.89 61.52 43.85 61.81 43.8 62.11 43.72 62.4 43.63 62.7 43.52 63.01 43.38 63.31 43.22 63.63 43.04 63.17 45.67 63.17 45.67 63 45.76 62.83 45.84 62.67 45.91 62.51 45.97 62.34 46.02 62.18 46.07 62.01 46.11 61.83 46.14 61.64 46.17 61.43 46.19 61.2 46.21 60.95 46.22 60.69 46.23 60.39 46.23 60.07 46.24 59.71 46.24 59.71 46.24 59.45 46.24 59.19 46.23 58.93 46.21 58.66 46.18 58.39 46.14 58.12 46.1 57.85 46.04 57.59 45.98 57.33 45.9 57.07 45.82 56.82 45.72 56.57 45.61 56.32 45.48 56.09 45.35 55.86 45.2 55.64 45.04 55.44 44.86 55.24 44.67 55.04 44.46 54.87 44.24 54.71 44 54.56 43.75 54.43 43.47 54.31 43.18 54.21 42.87 54.13 42.55 54.06 42.21 54.02 41.84 53.99 41.45 53.99 41.05 54 40.63 54.04 40.18 54.04 40.18 54.06 40.03 54.08 39.85 54.11 39.67 54.15 39.48 54.19 39.28 54.24 39.07 54.3 38.86 54.35 38.63 54.43 38.41 54.51 38.18 54.61 37.95 54.71 37.73 54.83 37.49 54.95 37.27 55.1 37.04 55.24 36.81 55.41 36.6 55.59 36.39 55.78 36.18 56 35.99 56.22 35.79 56.47 35.62 56.72 35.45 57 35.3 57.3 35.16 57.62 35.04 57.95 34.93 58.31 34.84 58.68 34.77 59.08 34.71 59.5 34.68 59.94 34.67 59.94 34.67 60.15 34.67 60.35 34.68 60.57 34.7 60.78 34.72 61 34.75 61.22 34.8 61.44 34.85 61.65 34.91 61.87 34.97 62.08 35.05 62.28 35.14 62.49 35.25 62.68 35.37 62.87 35.49 63.05 35.64 63.23 35.79 63.39 35.96 63.54 36.15 63.68 36.36 63.81 36.57 63.93 36.81 64.03 37.06 64.12 37.33 64.19 37.62 64.25 37.93 64.28 38.26 64.3 38.6 64.3 38.98 64.28 39.37 64.24 39.78 64.17 40.22 64.08 40.68 63.97 41.33 56.28 41.33 56.74 39.27 61.35 39.27 61.35 39.27 61.37 38.99 61.37 38.73 61.35 38.49 61.31 38.26 61.25 38.06 61.18 37.88 61.08 37.72 60.97 37.57 60.84 37.44 60.7 37.33 60.55 37.24 60.4 37.16 60.23 37.1 60.05 37.06 59.87 37.04 59.68 37.03 59.68 37.03 59.47 37.03 59.27 37.06 59.08 37.09 58.9 37.16 58.73 37.24 58.57 37.33 58.42 37.44 58.27 37.57 58.15 37.72 58.02 37.87 57.91 38.04 57.81 38.23 57.72 38.42 57.65 38.63 57.59 38.85 57.53 39.08 57.12 41.29"/><polygon class="cls-4" points="53.01 43.88 52.59 46.24 49.92 46.24 49.95 46.02 49.98 45.8 50.01 45.6 50.03 45.41 50.06 45.26 50.09 45.12 50.12 45.03 50.15 44.98 50.01 45.15 49.83 45.31 49.63 45.46 49.4 45.61 49.16 45.75 48.89 45.88 48.61 46 48.32 46.11 48.02 46.21 47.7 46.29 47.4 46.35 47.08 46.4 46.77 46.42 46.47 46.42 46.17 46.4 45.88 46.36 45.51 46.27 45.18 46.15 44.87 46.01 44.6 45.85 44.37 45.69 44.17 45.49 43.99 45.29 43.84 45.07 43.72 44.85 43.61 44.62 43.53 44.38 43.47 44.14 43.42 43.9 43.39 43.66 43.38 43.42 43.37 43.19 43.4 42.78 43.47 42.39 43.56 42.01 43.7 41.65 43.87 41.32 44.06 41.01 44.3 40.72 44.54 40.45 44.81 40.2 45.1 39.99 45.41 39.79 45.74 39.62 46.08 39.47 46.43 39.35 46.78 39.26 47.14 39.2 47.16 39.2 47.21 39.19 47.29 39.18 47.4 39.17 47.53 39.15 47.67 39.14 47.84 39.12 48.02 39.1 48.19 39.09 48.37 39.06 48.55 39.05 48.73 39.03 48.9 39.02 49.05 39.01 49.19 39.01 49.31 39.01 49.44 39.01 49.56 39.01 49.69 39.01 49.82 39.01 49.95 39.01 50.06 39.02 50.18 39.02 50.3 39.02 50.4 39.03 50.5 39.03 50.58 39.03 50.66 39.03 50.72 39.04 50.76 39.04 50.79 39.04 50.8 39.04 50.82 38.97 50.87 38.79 50.91 38.58 50.91 38.4 50.89 38.26 50.87 38.14 50.83 38.02 50.78 37.91 50.72 37.81 50.65 37.71 50.57 37.62 50.49 37.53 50.39 37.46 50.29 37.4 50.18 37.34 50.07 37.29 49.95 37.25 49.83 37.22 49.7 37.2 49.58 37.19 49.27 37.18 48.95 37.19 48.62 37.19 48.28 37.21 47.94 37.24 47.6 37.27 47.26 37.3 46.93 37.34 46.61 37.39 46.31 37.44 46.03 37.49 45.77 37.55 45.55 37.61 45.35 37.66 45.2 37.73 45.09 37.79 45.85 35.28 46.07 35.17 46.31 35.08 46.54 34.99 46.8 34.93 47.05 34.88 47.32 34.83 47.6 34.8 47.89 34.77 48.19 34.75 48.49 34.74 48.8 34.73 49.13 34.73 49.47 34.73 49.81 34.73 50.16 34.74 50.53 34.74 50.83 34.77 51.15 34.82 51.48 34.9 51.82 34.99 52.15 35.12 52.48 35.28 52.8 35.45 53.09 35.66 53.37 35.9 53.61 36.16 53.82 36.45 53.98 36.76 54.1 37.11 54.16 37.49 54.17 37.89 54.11 38.32 53.01 43.88"/><polyline class="cls-5" points="53.01 43.88 52.59 46.24 49.92 46.24 49.92 46.24 49.95 46.02 49.98 45.8 50.01 45.6 50.03 45.41 50.06 45.26 50.09 45.12 50.12 45.03 50.15 44.98 50.15 44.98 50.01 45.15 49.83 45.31 49.63 45.46 49.4 45.61 49.16 45.75 48.89 45.88 48.61 46 48.32 46.11 48.02 46.21 47.7 46.29 47.4 46.35 47.08 46.4 46.77 46.42 46.47 46.42 46.17 46.4 45.88 46.36 45.88 46.36 45.51 46.27 45.18 46.15 44.87 46.01 44.6 45.85 44.37 45.69 44.17 45.49 43.99 45.29 43.84 45.07 43.72 44.85 43.61 44.62 43.53 44.38 43.47 44.14 43.42 43.9 43.39 43.66 43.38 43.42 43.37 43.19 43.37 43.19 43.4 42.78 43.47 42.39 43.56 42.01 43.7 41.65 43.87 41.32 44.06 41.01 44.3 40.72 44.54 40.45 44.81 40.2 45.1 39.99 45.41 39.79 45.74 39.62 46.08 39.47 46.43 39.35 46.78 39.26 47.14 39.2 47.14 39.2 47.16 39.2 47.21 39.19 47.29 39.18 47.4 39.17 47.53 39.15 47.67 39.14 47.84 39.12 48.02 39.1 48.19 39.09 48.37 39.06 48.55 39.05 48.73 39.03 48.9 39.02 49.05 39.01 49.19 39.01 49.31 39.01 49.31 39.01 49.44 39.01 49.56 39.01 49.69 39.01 49.82 39.01 49.95 39.01 50.06 39.02 50.18 39.02 50.3 39.02 50.4 39.03 50.5 39.03 50.58 39.03 50.66 39.03 50.72 39.04 50.76 39.04 50.79 39.04 50.8 39.04 50.8 39.04 50.82 38.97 50.87 38.79 50.91 38.58 50.91 38.4 50.91 38.4 50.89 38.26 50.87 38.14 50.83 38.02 50.78 37.91 50.72 37.81 50.65 37.71 50.57 37.62 50.49 37.53 50.39 37.46 50.29 37.4 50.18 37.34 50.07 37.29 49.95 37.25 49.83 37.22 49.7 37.2 49.58 37.19 49.58 37.19 49.27 37.18 48.95 37.19 48.62 37.19 48.28 37.21 47.94 37.24 47.6 37.27 47.26 37.3 46.93 37.34 46.61 37.39 46.31 37.44 46.03 37.49 45.77 37.55 45.55 37.61 45.35 37.66 45.2 37.73 45.09 37.79 45.85 35.28 45.85 35.28 46.07 35.17 46.31 35.08 46.54 34.99 46.8 34.93 47.05 34.88 47.32 34.83 47.6 34.8 47.89 34.77 48.19 34.75 48.49 34.74 48.8 34.73 49.13 34.73 49.47 34.73 49.81 34.73 50.16 34.74 50.53 34.74 50.53 34.74 50.83 34.77 51.15 34.82 51.48 34.9 51.82 34.99 52.15 35.12 52.48 35.28 52.8 35.45 53.09 35.66 53.37 35.9 53.61 36.16 53.82 36.45 53.98 36.76 54.1 37.11 54.16 37.49 54.17 37.89 54.11 38.32 53.01 43.88"/><polygon class="cls-3" points="50.46 41.1 50.45 41.04 50.4 40.99 50.33 40.96 50.24 40.94 50.11 40.92 49.98 40.91 49.82 40.91 49.66 40.91 49.49 40.93 49.31 40.95 49.14 40.97 48.97 41 48.81 41.03 48.65 41.06 48.52 41.1 48.4 41.13 48.33 41.15 48.24 41.18 48.13 41.22 48.02 41.27 47.89 41.32 47.75 41.39 47.61 41.47 47.47 41.55 47.33 41.65 47.19 41.77 47.07 41.88 46.96 42.02 46.85 42.16 46.78 42.31 46.72 42.48 46.68 42.66 46.67 43.02 46.72 43.3 46.81 43.52 46.94 43.69 47.1 43.8 47.27 43.87 47.46 43.91 47.64 43.92 47.97 43.91 48.25 43.88 48.52 43.83 48.77 43.76 48.99 43.69 49.19 43.6 49.37 43.5 49.52 43.38 49.66 43.27 49.78 43.15 49.89 43.03 49.98 42.9 50.05 42.78 50.11 42.66 50.15 42.54 50.19 42.43 50.23 42.27 50.26 42.1 50.3 41.92 50.34 41.73 50.37 41.56 50.4 41.39 50.43 41.24 50.46 41.1"/><polygon class="cls-4" points="30.68 46.24 27.79 46.24 30.22 32.31 35.25 32.31 35.75 40.6 39.17 32.31 44.4 32.31 41.96 46.24 39.06 46.24 40.89 35.81 40.78 35.81 36.48 46.24 33.23 46.24 33.2 45.8 33.14 44.64 33.04 43 32.93 41.11 32.82 39.21 32.72 37.53 32.66 36.32 32.63 35.81 32.62 35.81 32.59 35.81 32.56 35.81 32.52 35.81 32.49 35.81 32.48 35.81 32.48 35.81 32.51 35.81 30.68 46.24"/><polyline class="cls-5" points="30.68 46.24 27.79 46.24 30.22 32.31 35.25 32.31 35.75 40.6 39.17 32.31 44.4 32.31 41.96 46.24 39.06 46.24 40.89 35.81 40.78 35.81 36.48 46.24 33.23 46.24 33.23 46.24 33.2 45.8 33.14 44.64 33.04 43 32.93 41.11 32.82 39.21 32.72 37.53 32.66 36.32 32.63 35.81 32.63 35.81 32.62 35.81 32.59 35.81 32.56 35.81 32.52 35.81 32.49 35.81 32.48 35.81 32.48 35.81 32.51 35.81 30.68 46.24"/><polygon class="cls-4" points="79.01 46.24 82.02 46.24 82.02 46.24 83.05 40.23 83.1 39.99 83.15 39.76 83.21 39.53 83.28 39.32 83.36 39.1 83.47 38.9 83.59 38.71 83.73 38.52 83.9 38.36 84.1 38.21 84.32 38.08 84.58 37.96 84.88 37.87 85.2 37.79 85.58 37.75 85.99 37.72 86.03 37.72 86.07 37.73 86.13 37.73 86.19 37.73 86.24 37.74 86.28 37.75 86.31 37.75 86.33 37.75 86.34 37.71 86.37 37.58 86.4 37.39 86.46 37.15 86.54 36.87 86.62 36.58 86.72 36.28 86.83 36 86.91 35.79 87 35.59 87.1 35.4 87.2 35.21 87.29 35.05 87.36 34.93 87.42 34.85 87.43 34.82 87.42 34.82 87.38 34.8 87.33 34.8 87.25 34.78 87.18 34.77 87.09 34.76 87.01 34.74 86.94 34.74 86.61 34.77 86.31 34.8 86.04 34.86 85.79 34.93 85.55 35.02 85.34 35.11 85.13 35.23 84.95 35.36 84.76 35.5 84.59 35.65 84.44 35.82 84.27 35.99 84.12 36.18 83.97 36.38 83.81 36.59 83.66 36.8 84.01 34.9 81 34.86 79.01 46.24 79.01 46.24"/><polyline class="cls-5" points="79.01 46.24 82.02 46.24 82.02 46.24 83.05 40.23 83.05 40.23 83.1 39.99 83.15 39.76 83.21 39.53 83.28 39.32 83.36 39.1 83.47 38.9 83.59 38.71 83.73 38.52 83.9 38.36 84.1 38.21 84.32 38.08 84.58 37.96 84.88 37.87 85.2 37.79 85.58 37.75 85.99 37.72 85.99 37.72 86.03 37.72 86.07 37.73 86.13 37.73 86.19 37.73 86.24 37.74 86.28 37.75 86.31 37.75 86.33 37.75 86.33 37.75 86.34 37.71 86.37 37.58 86.4 37.39 86.46 37.15 86.54 36.87 86.62 36.58 86.72 36.28 86.83 36 86.83 36 86.91 35.79 87 35.59 87.1 35.4 87.2 35.21 87.29 35.05 87.36 34.93 87.42 34.85 87.43 34.82 87.43 34.82 87.42 34.82 87.38 34.8 87.33 34.8 87.25 34.78 87.18 34.77 87.09 34.76 87.01 34.74 86.94 34.74 86.94 34.74 86.61 34.77 86.31 34.8 86.04 34.86 85.79 34.93 85.55 35.02 85.34 35.11 85.13 35.23 84.95 35.36 84.76 35.5 84.59 35.65 84.44 35.82 84.27 35.99 84.12 36.18 83.97 36.38 83.81 36.59 83.66 36.8 84.01 34.9 81 34.86 79.01 46.24 79.01 46.24"/><polygon class="cls-4" points="92.04 34.74 92.38 34.75 92.7 34.77 93.02 34.8 93.33 34.85 93.63 34.91 93.91 34.98 94.19 35.06 94.46 35.16 94.72 35.27 94.96 35.39 95.21 35.51 95.43 35.65 95.65 35.81 95.86 35.97 96.05 36.14 96.24 36.33 96.41 36.52 96.58 36.73 96.72 36.93 96.86 37.16 97 37.38 97.11 37.63 97.22 37.87 97.31 38.13 97.39 38.39 97.46 38.66 97.52 38.95 97.56 39.23 97.59 39.52 97.6 39.83 97.61 40.14 97.6 40.45 97.58 40.83 97.54 41.19 97.49 41.53 97.42 41.88 97.35 42.2 97.25 42.51 97.14 42.81 97.03 43.1 96.9 43.38 96.77 43.64 96.61 43.89 96.46 44.13 96.29 44.36 96.1 44.58 95.91 44.77 95.71 44.97 95.5 45.15 95.29 45.32 95.06 45.47 94.83 45.61 94.59 45.74 94.33 45.86 94.08 45.97 93.82 46.07 93.55 46.16 93.27 46.23 92.99 46.29 92.71 46.34 92.41 46.38 92.11 46.41 91.81 46.42 91.51 46.43 91.2 46.42 90.9 46.41 90.61 46.38 90.33 46.34 90.05 46.28 89.76 46.23 89.5 46.15 89.24 46.06 88.98 45.97 88.73 45.85 88.5 45.74 88.27 45.6 88.05 45.46 87.84 45.31 87.63 45.15 87.44 44.97 87.26 44.78 87.09 44.58 86.93 44.38 86.77 44.15 86.64 43.92 86.51 43.68 86.4 43.43 86.29 43.17 86.2 42.9 86.12 42.61 86.06 42.31 86 42.01 85.97 41.69 85.94 41.36 85.94 41.02 85.94 40.68 85.97 40.32 86 39.98 86.06 39.65 86.12 39.33 86.2 39.02 86.28 38.72 86.38 38.43 86.49 38.15 86.61 37.87 86.74 37.61 86.89 37.37 87.05 37.13 87.21 36.9 87.39 36.68 87.57 36.48 87.77 36.28 87.97 36.1 88.19 35.93 88.41 35.77 88.64 35.62 88.88 35.48 89.13 35.35 89.39 35.24 89.65 35.13 89.93 35.05 90.2 34.97 90.5 34.9 90.79 34.84 91.09 34.8 91.4 34.77 91.72 34.75 92.04 34.74"/><polyline class="cls-5" points="92.04 34.74 92.04 34.74 92.38 34.75 92.7 34.77 93.02 34.8 93.33 34.85 93.63 34.91 93.91 34.98 94.19 35.06 94.46 35.16 94.72 35.27 94.96 35.39 95.21 35.51 95.43 35.65 95.65 35.81 95.86 35.97 96.05 36.14 96.24 36.33 96.41 36.52 96.58 36.73 96.72 36.93 96.86 37.16 97 37.38 97.11 37.63 97.22 37.87 97.31 38.13 97.39 38.39 97.46 38.66 97.52 38.95 97.56 39.23 97.59 39.52 97.6 39.83 97.61 40.14 97.6 40.45 97.6 40.45 97.58 40.83 97.54 41.19 97.49 41.53 97.42 41.88 97.35 42.2 97.25 42.51 97.14 42.81 97.03 43.1 96.9 43.38 96.77 43.64 96.61 43.89 96.46 44.13 96.29 44.36 96.1 44.58 95.91 44.77 95.71 44.97 95.5 45.15 95.29 45.32 95.06 45.47 94.83 45.61 94.59 45.74 94.33 45.86 94.08 45.97 93.82 46.07 93.55 46.16 93.27 46.23 92.99 46.29 92.71 46.34 92.41 46.38 92.11 46.41 91.81 46.42 91.51 46.43 91.51 46.43 91.2 46.42 90.9 46.41 90.61 46.38 90.33 46.34 90.05 46.28 89.76 46.23 89.5 46.15 89.24 46.06 88.98 45.97 88.73 45.85 88.5 45.74 88.27 45.6 88.05 45.46 87.84 45.31 87.63 45.15 87.44 44.97 87.26 44.78 87.09 44.58 86.93 44.38 86.77 44.15 86.64 43.92 86.51 43.68 86.4 43.43 86.29 43.17 86.2 42.9 86.12 42.61 86.06 42.31 86 42.01 85.97 41.69 85.94 41.36 85.94 41.02 85.94 40.68 85.94 40.68 85.97 40.32 86 39.98 86.06 39.65 86.12 39.33 86.2 39.02 86.28 38.72 86.38 38.43 86.49 38.15 86.61 37.87 86.74 37.61 86.89 37.37 87.05 37.13 87.21 36.9 87.39 36.68 87.57 36.48 87.77 36.28 87.97 36.1 88.19 35.93 88.41 35.77 88.64 35.62 88.88 35.48 89.13 35.35 89.39 35.24 89.65 35.13 89.93 35.05 90.2 34.97 90.5 34.9 90.79 34.84 91.09 34.8 91.4 34.77 91.72 34.75 92.04 34.74"/><polygon class="cls-4" points="96.47 45.67 97.34 45.67 97.34 45.78 97 45.78 97 46.51 96.81 46.51 96.81 45.78 96.47 45.78 96.47 45.67"/><polyline class="cls-5" points="96.47 45.67 97.34 45.67 97.34 45.78 97 45.78 97 46.51 96.81 46.51 96.81 45.78 96.47 45.78 96.47 45.67"/><polygon class="cls-4" points="97.45 45.67 97.72 45.67 98.03 46.31 98.03 46.31 98.33 45.67 98.6 45.67 98.6 46.51 98.4 46.51 98.4 45.86 98.4 45.86 98.1 46.51 97.94 46.51 97.64 45.86 97.64 45.86 97.64 46.51 97.45 46.51 97.45 45.67"/><polyline class="cls-5" points="97.45 45.67 97.72 45.67 98.03 46.31 98.03 46.31 98.33 45.67 98.6 45.67 98.6 46.51 98.4 46.51 98.4 45.86 98.4 45.86 98.1 46.51 97.94 46.51 97.64 45.86 97.64 45.86 97.64 46.51 97.45 46.51 97.45 45.67"/><polygon class="cls-2" points="89.68 40.18 89.64 40.59 89.61 40.98 89.61 41.33 89.64 41.65 89.68 41.95 89.75 42.21 89.83 42.45 89.93 42.66 90.06 42.84 90.2 43 90.35 43.13 90.53 43.24 90.71 43.32 90.92 43.38 91.13 43.41 91.36 43.42 91.61 43.41 91.86 43.38 92.09 43.33 92.31 43.25 92.52 43.15 92.72 43.02 92.9 42.86 93.08 42.67 93.23 42.47 93.38 42.23 93.52 41.96 93.64 41.67 93.75 41.36 93.85 41.01 93.92 40.63 93.99 40.23 94.03 39.91 94.05 39.6 94.05 39.31 94.03 39.03 93.99 38.77 93.93 38.52 93.85 38.29 93.75 38.07 93.63 37.88 93.5 37.72 93.34 37.57 93.17 37.45 92.98 37.35 92.77 37.3 92.55 37.26 92.31 37.26 92 37.28 91.72 37.33 91.46 37.42 91.22 37.53 91 37.68 90.79 37.84 90.61 38.03 90.44 38.24 90.29 38.46 90.15 38.69 90.03 38.93 89.94 39.18 89.85 39.43 89.78 39.69 89.73 39.94 89.68 40.18"/></g></g></svg>