<svg xmlns="http://www.w3.org/2000/svg" viewBox="0 0 125.43 78.39"><defs><style>.cls-1{fill:#0078a9;}.cls-2{fill:#fff;}</style></defs><title>amex</title><g id="Capa_2" data-name="Capa 2"><g id="Layer_1" data-name="Layer 1"><rect class="cls-1" width="125.43" height="78.39" rx="4.18" ry="4.18"/><path class="cls-2" d="M38.92,37.37V36.12l-.6,1.25H33.12L32.47,36v1.35H22.76l-1.15-2.71H19.67l-1.21,2.71h-5v-8.2l3.69-8.35h7.06l1,2.37V20.85h8.64l1.9,4,1.86-4H64.84a4.65,4.65,0,0,1,2.37.64v-.64h6.87v.9a5.6,5.6,0,0,1,3.06-.9H89.27l1.06,2.4v-2.4H98.1l1.41,2.4v-2.4h7.43V37.39H99.31L97.51,34.5v2.87H88l-1.33-3H84.84l-1.25,3H77.85A7.43,7.43,0,0,1,74.1,36.2v1.18H62.67V33.51c0-.56-.43-.52-.43-.52h-.42v4.38Z"/><path class="cls-2" d="M33.21,41h15l2.17,2.45L52.61,41H64.16a5.31,5.31,0,0,1,2.11.58V41H76.55a5.24,5.24,0,0,1,2.4.65V41H92.17v.6a4.49,4.49,0,0,1,2.21-.6H103v.6a5.26,5.26,0,0,1,2.23-.6H112v15.6a3.73,3.73,0,0,1-2.73,1h-8.91v-.5a4.57,4.57,0,0,1-2.14.5H74.52v-4c0-.4-.17-.47-.53-.47h-.33v4.5h-7.4V53.09a5,5,0,0,1-2.19.44H61.42v4H52.3L50.23,55,48,57.57H33.21Z"/><polygon class="cls-1" points="80.54 43.45 89.96 43.45 89.96 45.98 83.42 45.98 83.42 48.18 89.78 48.18 89.78 50.4 83.42 50.4 83.42 52.72 89.96 52.72 89.96 55.19 80.54 55.19 80.54 43.45"/><path class="cls-1" d="M108.17,48c3.54.18,3.84,2,3.84,3.84a3.43,3.43,0,0,1-3.7,3.38h-6.05V52.72H107c.8,0,2,0,2-1.13,0-.54-.21-.88-1.06-1-.38-.05-1.78-.13-2-.14-3.2-.08-3.95-1.68-3.95-3.61a3.24,3.24,0,0,1,3.44-3.4h6.05V46H107c-1,0-2.1-.12-2.1,1,0,.72.54.87,1.22.93C106.38,47.94,108,48,108.17,48Z"/><path class="cls-1" d="M97.31,48c3.54.18,3.84,2,3.84,3.84a3.43,3.43,0,0,1-3.7,3.38H91.41V52.72h4.72c.8,0,2,0,2-1.13,0-.54-.21-.88-1.06-1-.38-.05-1.78-.13-2-.14-3.2-.08-3.94-1.68-3.94-3.61a3.23,3.23,0,0,1,3.43-3.4h6.05V46H96.18c-1,0-2.1-.12-2.1,1,0,.72.54.87,1.22.93C95.53,47.94,97.11,48,97.31,48Z"/><path class="cls-1" d="M63.14,43.47H53l-3.3,3.64-3.2-3.67H35.16V55.19h11l3.46-3.88L53,55.21h5.53v-4H62.4c1.49,0,4.22-.05,4.22-4.17A3.25,3.25,0,0,0,63.14,43.47ZM44.65,52.72H38V50.4h6.36V48.18H38V46l7,0,2.81,3.2Zm11,1.36-4.14-4.9,4.14-4.59Zm6.5-5.28H58.58V46h3.6a1.42,1.42,0,1,1,0,2.82Z"/><path class="cls-1" d="M77.06,49.87a3.2,3.2,0,0,0,2-3.25c0-2.51-2-3.14-3.46-3.14H68.1V55.21H71V51.07h3.77c1,0,1.39,1,1.41,2l.08,2.15h2.81l-.11-2.41C78.95,50.91,78.43,50,77.06,49.87Zm-2.49-1.21H71V46h3.6a1.38,1.38,0,0,1,1.59,1.35C76.17,48.13,75.75,48.65,74.57,48.65Z"/><rect class="cls-1" x="69.26" y="23.18" width="2.88" height="11.75"/><polygon class="cls-1" points="45.66 23.19 55.08 23.19 55.08 25.72 48.54 25.72 48.54 27.92 54.9 27.92 54.9 30.15 48.54 30.15 48.54 32.47 55.08 32.47 55.08 34.93 45.66 34.93 45.66 23.19"/><path class="cls-1" d="M65.75,29.59a3.2,3.2,0,0,0,2-3.25c0-2.52-2-3.14-3.46-3.14h-7.5V34.93h2.88V30.79h3.77c1,0,1.39,1,1.42,2l.08,2.15h2.8l-.1-2.41C67.64,30.63,67.12,29.74,65.75,29.59Zm-2.49-1.21H59.67V25.71h3.6a1.38,1.38,0,0,1,1.59,1.35C64.86,27.85,64.44,28.37,63.26,28.37Z"/><path class="cls-1" d="M39,23.19l-3.54,7.88-3.53-7.87H27.43V34.5l-5-11.31H18.58L13.45,34.93h3l1.13-2.62h5.75l1.14,2.62h5.8V26.22l3.85,8.71h2.62l3.94-8.57v8.57h2.88V23.19ZM18.7,29.78l1.72-4.1,1.79,4.1Z"/><path class="cls-1" d="M101.88,23.19v8.13L97,23.19H92.76v11l-4.91-11H84l-4,9.09s-1.68,0-1.85,0c-.69-.14-1.78-.63-1.79-2.7v-.85c0-2.75,1.49-3,3.41-3h1.78V23.19H77.85c-1.31,0-4.16,1-4.26,5.82-.07,3.25,1.35,5.93,4.55,5.93h3.8l1.13-2.62h5.75L90,34.94h5.69v-8.6l5.19,8.6h3.93V23.19Zm-17.71,6.6,1.72-4.1,1.81,4.1Z"/></g></g></svg>