<svg xmlns="http://www.w3.org/2000/svg" viewBox="0 0 125.43 78.39"><defs><style>.cls-1{fill:#1c3663;}.cls-2{fill:#fff;}</style></defs><title>paypal</title><g id="Capa_2" data-name="Capa 2"><g id="Layer_1" data-name="Layer 1"><rect class="cls-1" width="125.43" height="78.39" rx="4.18" ry="4.18"/><path class="cls-2" d="M60.63,34.44a1.79,1.79,0,0,0-1.31.8L56,40.88c-.16.28-.32.1-.35,0l-.93-5.61a1.15,1.15,0,0,0-1.14-.82H51.76a.62.62,0,0,0-.63.8s1.42,8.08,1.7,10c.14,1.05,0,1.24,0,1.24L51,49.7c-.27.44-.12.79.32.79h2.16a1.75,1.75,0,0,0,1.31-.79l8.32-14.07s.79-1.2.06-1.19H60.63"/><path class="cls-2" d="M34.38,37.3a4.39,4.39,0,0,1-2.63.69h-.51a.63.63,0,0,1-.64-.8l.63-2.71a1.06,1.06,0,0,1,1-.79h.68a3.3,3.3,0,0,1,1.81.41,1.36,1.36,0,0,1,.6,1.24,2.25,2.25,0,0,1-.94,2m4.51-4.18a3.12,3.12,0,0,0-1.14-1.23,5.26,5.26,0,0,0-1.81-.67,15.11,15.11,0,0,0-2.46-.2H29.11a1.09,1.09,0,0,0-1,.79L25.17,44.61a.62.62,0,0,0,.63.8h2.09a1.07,1.07,0,0,0,1-.8l.72-3.1a1.07,1.07,0,0,1,1-.79h.6a9.9,9.9,0,0,0,6-1.57A4.88,4.88,0,0,0,39.29,35a3.86,3.86,0,0,0-.4-1.88"/><path class="cls-2" d="M49,35a8,8,0,0,0-3.73-.67,16.47,16.47,0,0,0-2.53.2c-.62.1-.68.11-1.07.2a1.22,1.22,0,0,0-.92,1l-.25,1c-.14.67.24.64.41.59a11.34,11.34,0,0,1,1.24-.37,9.15,9.15,0,0,1,2-.26,5.18,5.18,0,0,1,1.89.27,1,1,0,0,1,.63.95.69.69,0,0,1,0,.29c0,.08-.1.16-.3.19-1.19.07-2,.18-3.08.33a9.62,9.62,0,0,0-2.65.73,4.11,4.11,0,0,0-1.79,1.42,3.85,3.85,0,0,0-.6,2.18A2.56,2.56,0,0,0,39,45a3.19,3.19,0,0,0,2.2.76,5.88,5.88,0,0,0,1.31-.12,6.59,6.59,0,0,0,1-.34,5.28,5.28,0,0,0,.86-.48l.79-.52v0l-.08.34h0a.61.61,0,0,0,.55.78h2a1.09,1.09,0,0,0,.89-.78L50,38.05a4.25,4.25,0,0,0,.08-.54,4.3,4.3,0,0,0,0-.5A2.2,2.2,0,0,0,49,35Zm-3.69,7.84a5.47,5.47,0,0,1-.82.42,3,3,0,0,1-1.09.24,2.43,2.43,0,0,1-1.19-.23.81.81,0,0,1-.41-.78,1.58,1.58,0,0,1,.3-1,2.17,2.17,0,0,1,.89-.6,7.75,7.75,0,0,1,1.38-.31c.48-.06,1.42-.17,1.54-.17s.2-.07.15.25c0,.14-.29,1.26-.42,1.76A1,1,0,0,1,45.26,42.79Z"/><path class="cls-2" d="M86.87,35a8,8,0,0,0-3.73-.67,16.37,16.37,0,0,0-2.53.2c-.62.09-.69.11-1.07.19a1.22,1.22,0,0,0-.92,1l-.26,1c-.14.67.24.64.41.59A10.91,10.91,0,0,1,80,36.93a9.21,9.21,0,0,1,2-.26,5.18,5.18,0,0,1,1.89.27,1,1,0,0,1,.63.95.73.73,0,0,1,0,.3c0,.08-.1.16-.3.19-1.19.07-2.05.18-3.08.33a9.65,9.65,0,0,0-2.65.73,4.13,4.13,0,0,0-1.79,1.42A3.87,3.87,0,0,0,76,43a2.56,2.56,0,0,0,.85,2,3.2,3.2,0,0,0,2.2.75,5.85,5.85,0,0,0,1.31-.12,6.68,6.68,0,0,0,1-.34,5.32,5.32,0,0,0,.86-.48l.79-.53v0l-.08.34h0a.62.62,0,0,0,.56.78h2a1.09,1.09,0,0,0,.9-.78l1.52-6.58a3.43,3.43,0,0,0,.08-.54,4.26,4.26,0,0,0,0-.5A2.2,2.2,0,0,0,86.87,35ZM83.17,42.8a5.69,5.69,0,0,1-.82.42,3,3,0,0,1-1.09.24,2.42,2.42,0,0,1-1.19-.23.8.8,0,0,1-.41-.78,1.58,1.58,0,0,1,.3-1,2.16,2.16,0,0,1,.89-.6,7.62,7.62,0,0,1,1.37-.31c.48-.06,1.42-.17,1.54-.17s.2-.07.15.25c0,.14-.3,1.26-.42,1.76A1,1,0,0,1,83.17,42.8Z"/><path class="cls-2" d="M72.29,37.35a4.41,4.41,0,0,1-2.63.68h-.52a.62.62,0,0,1-.63-.79l.62-2.71a1.07,1.07,0,0,1,1-.79h.69a3.4,3.4,0,0,1,1.81.4,1.4,1.4,0,0,1,.61,1.25,2.3,2.3,0,0,1-.94,2m4.51-4.18a3.21,3.21,0,0,0-1.15-1.23,5.17,5.17,0,0,0-1.82-.67,14.48,14.48,0,0,0-2.46-.19H67a1.09,1.09,0,0,0-1,.8L63.08,44.66a.61.61,0,0,0,.62.79h2.1a1.09,1.09,0,0,0,1-.79l.71-3.1a1.07,1.07,0,0,1,1-.79h.6a9.87,9.87,0,0,0,6-1.57,4.92,4.92,0,0,0,2.13-4.14,4,4,0,0,0-.4-1.88"/><path class="cls-2" d="M94.07,31.19H92.2a1.07,1.07,0,0,0-1,.73s0,0,0,.07l-.1.47L88.51,44.14l-.12.5h0a.61.61,0,0,0,.55.77v0H90.9a1.08,1.08,0,0,0,1-.73l0-.06L94.7,32h0A.62.62,0,0,0,94.07,31.19Z"/><path class="cls-2" d="M96.9,33.76l-.21,0-.2,0a.63.63,0,0,1-.47-.17.76.76,0,0,1-.16-.54V32h-.23v-.29h.23v-.58h.34v.58h.71V32H96.2V33c0,.11,0,.19,0,.25a.42.42,0,0,0,.05.17.24.24,0,0,0,.11.11.54.54,0,0,0,.21,0l.18,0,.13,0h0Z"/><path class="cls-2" d="M100.28,33.78h-.34V32.63c0-.09,0-.17,0-.25a.58.58,0,0,0-.05-.19.28.28,0,0,0-.12-.12.5.5,0,0,0-.22,0,.63.63,0,0,0-.29.07,1.75,1.75,0,0,0-.29.18s0,.06,0,.1,0,.07,0,.11v1.3h-.34V32.63c0-.09,0-.18,0-.25a.56.56,0,0,0,0-.19.29.29,0,0,0-.12-.12.54.54,0,0,0-.23,0,.62.62,0,0,0-.28.07,1.63,1.63,0,0,0-.28.17v1.52h-.34v-2h.34V32a1.56,1.56,0,0,1,.32-.21.78.78,0,0,1,.34-.08.67.67,0,0,1,.35.09.53.53,0,0,1,.21.24,1.65,1.65,0,0,1,.38-.25.88.88,0,0,1,.37-.08.59.59,0,0,1,.49.2.89.89,0,0,1,.16.57Z"/></g></g></svg>